<svg xmlns="http://www.w3.org/2000/svg" viewBox="0 0 100 100" width="100" height="100">
  <defs>
    <linearGradient id="bg-m1" x1="0%" y1="0%" x2="100%" y2="100%">
      <stop offset="0%" stop-color="#10b981" />
      <stop offset="100%" stop-color="#047857" />
    </linearGradient>
    <linearGradient id="skin-m1" x1="0%" y1="0%" x2="100%" y2="100%">
      <stop offset="0%" stop-color="#fed7aa" />
      <stop offset="100%" stop-color="#fbd38d" />
    </linearGradient>
  </defs>
  <circle cx="50" cy="50" r="48" fill="url(#bg-m1)" />
  <!-- Shoulders / Suit -->
  <path d="M22 92 C22 75 32 68 50 68 C68 68 78 75 78 92 Z" fill="#0f172a" />
  <!-- Shirt collar -->
  <polygon points="50,68 44,80 56,80" fill="#ffffff" />
  <polygon points="50,80 47,92 53,92" fill="#059669" />
  <!-- Neck -->
  <rect x="44" y="55" width="12" height="16" rx="2" fill="url(#skin-m1)" />
  <!-- Head -->
  <ellipse cx="50" cy="42" rx="17" ry="20" fill="url(#skin-m1)" />
  <!-- Hair -->
  <path d="M32 40 C32 26 40 22 50 22 C60 22 68 26 68 36 C68 37 66 35 64 36 C60 30 40 28 34 38 Z" fill="#1e293b" />
  <!-- Ears -->
  <circle cx="32" cy="43" r="3.5" fill="url(#skin-m1)" />
  <circle cx="68" cy="43" r="3.5" fill="url(#skin-m1)" />
</svg>
